<mxfile host="app.diagrams.net" agent="Mozilla/5.0 (Windows NT 10.0; Win64; x64) AppleWebKit/537.36 (KHTML, like Gecko) Chrome/122.0.0.0 Safari/537.36 Edg/122.0.0.0" version="25.0.1">
  <diagram name="Page-1" id="w3-zPBi_KbYVwl9-1PLq">
    <mxGraphModel dx="1173" dy="665" grid="1" gridSize="10" guides="1" tooltips="1" connect="1" arrows="1" fold="1" page="1" pageScale="1" pageWidth="850" pageHeight="1100" math="0" shadow="0">
      <root>
        <mxCell id="0" />
        <mxCell id="1" parent="0" />
        <mxCell id="3uCUP2M5r506ICIH9xA_-1" value="T3" style="ellipse;whiteSpace=wrap;html=1;aspect=fixed;" vertex="1" parent="1">
          <mxGeometry x="280" y="250" width="80" height="80" as="geometry" />
        </mxCell>
        <mxCell id="3uCUP2M5r506ICIH9xA_-10" style="edgeStyle=orthogonalEdgeStyle;rounded=0;orthogonalLoop=1;jettySize=auto;html=1;exitX=0.5;exitY=1;exitDx=0;exitDy=0;entryX=0.5;entryY=0;entryDx=0;entryDy=0;" edge="1" parent="1" source="3uCUP2M5r506ICIH9xA_-2" target="3uCUP2M5r506ICIH9xA_-3">
          <mxGeometry relative="1" as="geometry" />
        </mxCell>
        <mxCell id="3uCUP2M5r506ICIH9xA_-11" style="edgeStyle=orthogonalEdgeStyle;rounded=0;orthogonalLoop=1;jettySize=auto;html=1;exitX=0;exitY=0.5;exitDx=0;exitDy=0;entryX=0.5;entryY=0;entryDx=0;entryDy=0;" edge="1" parent="1" source="3uCUP2M5r506ICIH9xA_-2" target="3uCUP2M5r506ICIH9xA_-1">
          <mxGeometry relative="1" as="geometry" />
        </mxCell>
        <mxCell id="3uCUP2M5r506ICIH9xA_-12" style="edgeStyle=orthogonalEdgeStyle;rounded=0;orthogonalLoop=1;jettySize=auto;html=1;exitX=1;exitY=0.5;exitDx=0;exitDy=0;entryX=0.5;entryY=0;entryDx=0;entryDy=0;" edge="1" parent="1" source="3uCUP2M5r506ICIH9xA_-2" target="3uCUP2M5r506ICIH9xA_-4">
          <mxGeometry relative="1" as="geometry" />
        </mxCell>
        <mxCell id="3uCUP2M5r506ICIH9xA_-2" value="T2" style="ellipse;whiteSpace=wrap;html=1;aspect=fixed;" vertex="1" parent="1">
          <mxGeometry x="400" y="140" width="80" height="80" as="geometry" />
        </mxCell>
        <mxCell id="3uCUP2M5r506ICIH9xA_-7" style="edgeStyle=orthogonalEdgeStyle;rounded=0;orthogonalLoop=1;jettySize=auto;html=1;exitX=0;exitY=0.5;exitDx=0;exitDy=0;entryX=0.5;entryY=1;entryDx=0;entryDy=0;" edge="1" parent="1" source="3uCUP2M5r506ICIH9xA_-3" target="3uCUP2M5r506ICIH9xA_-1">
          <mxGeometry relative="1" as="geometry" />
        </mxCell>
        <mxCell id="3uCUP2M5r506ICIH9xA_-9" style="edgeStyle=orthogonalEdgeStyle;rounded=0;orthogonalLoop=1;jettySize=auto;html=1;exitX=1;exitY=0.5;exitDx=0;exitDy=0;entryX=0.5;entryY=1;entryDx=0;entryDy=0;" edge="1" parent="1" source="3uCUP2M5r506ICIH9xA_-3" target="3uCUP2M5r506ICIH9xA_-4">
          <mxGeometry relative="1" as="geometry" />
        </mxCell>
        <mxCell id="3uCUP2M5r506ICIH9xA_-3" value="T1" style="ellipse;whiteSpace=wrap;html=1;aspect=fixed;" vertex="1" parent="1">
          <mxGeometry x="400" y="370" width="80" height="80" as="geometry" />
        </mxCell>
        <mxCell id="3uCUP2M5r506ICIH9xA_-4" value="T4" style="ellipse;whiteSpace=wrap;html=1;aspect=fixed;" vertex="1" parent="1">
          <mxGeometry x="520" y="250" width="80" height="80" as="geometry" />
        </mxCell>
      </root>
    </mxGraphModel>
  </diagram>
</mxfile>
